#N canvas 548 87 472 601 24;
#X floatatom 178 331 5 0 0 0 - - -, f 5;
#X obj 125 136 print;
#X msg 125 90 hello composers;
#X obj 77 59 bng 15 250 50 0 empty empty empty 17 7 0 10 -262144 -1
-1;
#X obj 178 374 osc~;
#X obj 178 502 dac~;
#X obj 92 225 vsl 30 256 200 800 1 0 empty empty empty 0 -9 0 10 -262144
-1 -1 0 1;
#X obj 178 438 *~;
#X obj 292 225 vsl 30 256 0 1 0 0 empty empty empty 0 -9 0 10 -262144
-1 -1 0 1;
#X connect 0 0 4 0;
#X connect 2 0 1 0;
#X connect 3 0 1 0;
#X connect 3 0 2 0;
#X connect 4 0 7 0;
#X connect 6 0 0 0;
#X connect 7 0 5 0;
#X connect 8 0 7 1;
