#N canvas -1680 -227 1680 1005 24;
#X floatatom 197 467 5 0 0 0 - - -, f 5;
#X obj 197 510 osc~;
#X obj 198 732 dac~;
#X obj 111 361 vsl 30 256 200 800 1 0 empty empty empty 0 -9 0 10 -204786
-1 -1 0 1;
#X obj 198 668 *~;
#X obj 552 391 vsl 30 256 0 1 0 0 empty empty empty 0 -9 0 10 -261234
-1 -1 0 1;
#X obj 313 689 line~;
#X msg 313 645 \$1 50;
#X obj 414 331 vline~;
#X obj 198 595 *~;
#X msg 414 287 1 20 \, 0 200 20;
#X obj 413 231 metro 500;
#X obj 413 209 tgl 15 0 empty empty empty 17 7 0 10 -262144 -1 -1 0
1;
#X obj 487 181 hsl 128 15 30 2000 0 0 empty empty empty -2 -8 0 10
-262144 -1 -1 2800 1;
#X obj 176 285 random 600;
#X obj 174 340 + 100;
#X text 498 658 vol slider;
#X text 28 627 freq slider;
#X text 45 60 Remember you can toggle Edit mode with ⌘E (ctrl E on
Windows) or from the Edit menu. You'll need to turn on DSP (digital
signal processing) to get sound to start., f 72;
#X text 648 171 When the toggle is on \, metro sends a bang every 500ms
(or whatever the slider is set to). That sends the message to vline~
creating an envelope. Metro also sends a bang to random \, which picks
an integer 0-599 that is sent through + 100 to make sure it's always
audible \, and then becomes the freqency for the osc~ object., f 29
;
#X connect 0 0 1 0;
#X connect 1 0 9 0;
#X connect 3 0 0 0;
#X connect 4 0 2 0;
#X connect 5 0 7 0;
#X connect 6 0 4 1;
#X connect 7 0 6 0;
#X connect 8 0 9 1;
#X connect 9 0 4 0;
#X connect 10 0 8 0;
#X connect 11 0 10 0;
#X connect 11 0 14 0;
#X connect 12 0 11 0;
#X connect 13 0 11 1;
#X connect 14 0 15 0;
#X connect 15 0 0 0;
