#N canvas 0 23 1280 927 24;
#X obj 486 701 osc~;
#X obj 499 940 dac~;
#X obj 499 876 *~;
#X obj 790 548 vsl 30 256 0 1 0 0 empty empty VOL 0 -9 0 14 -261234
-1 -1 849 1;
#X obj 664 845 line~;
#X msg 664 803 \$1 50;
#X obj 655 346 vline~;
#X obj 499 803 *~;
#X msg 655 304 1 20 \, 0 200 20;
#X obj 447 136 tgl 15 0 empty empty empty 17 7 0 10 -262144 -1 -1 0
1;
#X obj 588 70 hsl 256 30 60 480 0 0 empty empty Tempo -2 -8 0 14 -262144
-1 -1 20700 1;
#X floatatom 556 343 0 0 0 0 - - -;
#X obj 556 301 + 1;
#X obj 451 302 float;
#X obj 451 346 % 4;
#X floatatom 508 385 5 0 0 0 - - -, f 5;
#X obj 351 439 select 0 1 2 3;
#X obj 486 659 mtof;
#X floatatom 865 118 5 0 0 0 - - -, f 5;
#X floatatom 866 183 5 0 0 0 - - -, f 5;
#X obj 586 136 expr 60000/$f1;
#X obj 585 19 loadbang;
#X obj 447 164 metro;
#X obj 384 539 f;
#X obj 404 502 + 4;
#X obj 448 540 f;
#X obj 520 541 f;
#X obj 468 503 + 7;
#X obj 540 504 + 12;
#X msg 142 457 60;
#X msg 208 458 63;
#X obj 314 539 f 60;
#X floatatom 287 400 5 0 0 0 - - -, f 5;
#X obj 71 410 select 0 16 24;
#X msg 272 457 62;
#X obj 219 365 % 28;
#X obj 875 548 adc~;
#X obj 875 587 env~;
#X floatatom 896 637 5 0 0 0 - - -, f 5;
#X obj 876 673 dbtorms;
#X floatatom 900 711 5 0 0 0 - - -, f 5;
#X obj 876 747 * 5;
#X text 34 44 This is the same as the arpeggiator patch \, but the
volume follows the envelope of the input from the mic.;
#X text 782 432 The env~ outputs the volume of its input in decibels.
dbtorms converts that to RMS.;
#X connect 0 0 7 0;
#X connect 2 0 1 0;
#X connect 2 0 1 1;
#X connect 3 0 5 0;
#X connect 4 0 2 1;
#X connect 5 0 4 0;
#X connect 6 0 7 1;
#X connect 7 0 2 0;
#X connect 8 0 6 0;
#X connect 9 0 22 0;
#X connect 10 0 18 0;
#X connect 10 0 20 0;
#X connect 12 0 11 0;
#X connect 12 0 13 1;
#X connect 13 0 12 0;
#X connect 13 0 14 0;
#X connect 13 0 35 0;
#X connect 14 0 15 0;
#X connect 14 0 16 0;
#X connect 16 0 31 0;
#X connect 16 1 23 0;
#X connect 16 2 25 0;
#X connect 16 3 26 0;
#X connect 17 0 0 0;
#X connect 20 0 19 0;
#X connect 20 0 22 1;
#X connect 21 0 10 0;
#X connect 22 0 8 0;
#X connect 22 0 13 0;
#X connect 23 0 17 0;
#X connect 24 0 23 1;
#X connect 25 0 17 0;
#X connect 26 0 17 0;
#X connect 27 0 25 1;
#X connect 28 0 26 1;
#X connect 29 0 31 1;
#X connect 30 0 31 1;
#X connect 31 0 17 0;
#X connect 31 0 24 0;
#X connect 31 0 27 0;
#X connect 31 0 28 0;
#X connect 33 0 29 0;
#X connect 33 1 30 0;
#X connect 33 2 34 0;
#X connect 34 0 31 1;
#X connect 35 0 32 0;
#X connect 35 0 33 0;
#X connect 36 0 37 0;
#X connect 37 0 38 0;
#X connect 37 0 39 0;
#X connect 39 0 40 0;
#X connect 39 0 41 0;
#X connect 41 0 3 0;
