#N canvas 0 23 900 715 10;
#X obj 47 67 adc~;
#X obj 48 284 dac~;
#X obj 48 261 *~;
#X obj 87 229 vsl 20 40 0.007 1 1 0 empty empty vol_(0-1) 0 -9 0 10
-261234 -1 -1 0 1;
#X obj 48 150 vsl 20 40 200 5000 0 0 empty empty delay_(200-5000) 0
-9 0 10 -232576 -1 -1 3800 1;
#X obj 47 90 delwrite~ my_delay 5000;
#X obj 48 200 delread~ my_delay 5000;
#X floatatom 78 174 5 0 0 0 - - -, f 5;
#X connect 0 0 5 0;
#X connect 2 0 1 0;
#X connect 2 0 1 1;
#X connect 3 0 2 1;
#X connect 4 0 6 0;
#X connect 4 0 7 0;
#X connect 6 0 2 0;
