#N canvas 106 132 1606 1054 10;
#X floatatom 134 163 0 0 0 0 - - -;
#X obj 100 141 + 1;
#X obj 49 141 f;
#X obj 54 85 tgl 15 0 empty empty empty 17 7 0 10 -262144 -1 -1 1 1
;
#X obj 107 191 % 7;
#X floatatom 121 214 5 0 0 0 - - -, f 5;
#X obj 100 245 select 0 1 2 3 4 5 6;
#X obj 376 176 vline~;
#X obj 303 303 osc~;
#X obj 327 416 dac~;
#X obj 327 384 *~;
#X obj 504 245 vsl 15 128 0 1 0 0 empty empty empty 0 -9 0 10 -261234
-1 -1 14800 1;
#X obj 384 394 line~;
#X msg 384 372 \$1 50;
#X obj 327 347 *~;
#X text 477 379 vol slider;
#X msg 73 273 60, f 2;
#X msg 96 275 62, f 2;
#X msg 121 275 64, f 2;
#X msg 146 275 66, f 2;
#X msg 173 275 68, f 2;
#X msg 201 274 67, f 2;
#X obj 158 307 mtof;
#X floatatom 157 336 5 0 0 0 - - -, f 5;
#X msg 227 276 0, f 2;
#X obj 53 113 metro 2000;
#X msg 376 132 1 20 \, 0 2000 20;
#X text 242 384 overall vol;
#X obj 397 205 osc~ 5;
#X obj 397 226 *~ 0.4;
#X obj 370 255 *~;
#X text 446 204 modulation freq;
#X text 446 224 modulation amount;
#X text 397 253 combine amp modulation with envelope;
#X text 243 347 env control;
#X connect 1 0 0 0;
#X connect 1 0 2 1;
#X connect 1 0 4 0;
#X connect 2 0 1 0;
#X connect 3 0 25 0;
#X connect 4 0 5 0;
#X connect 4 0 6 0;
#X connect 6 0 16 0;
#X connect 6 1 17 0;
#X connect 6 2 18 0;
#X connect 6 3 19 0;
#X connect 6 4 20 0;
#X connect 6 5 21 0;
#X connect 6 6 24 0;
#X connect 7 0 30 0;
#X connect 8 0 14 0;
#X connect 10 0 9 0;
#X connect 11 0 13 0;
#X connect 12 0 10 1;
#X connect 13 0 12 0;
#X connect 14 0 10 0;
#X connect 16 0 22 0;
#X connect 17 0 22 0;
#X connect 18 0 22 0;
#X connect 19 0 22 0;
#X connect 20 0 22 0;
#X connect 21 0 22 0;
#X connect 22 0 23 0;
#X connect 22 0 8 0;
#X connect 24 0 22 0;
#X connect 25 0 2 0;
#X connect 25 0 26 0;
#X connect 26 0 7 0;
#X connect 28 0 29 0;
#X connect 29 0 30 1;
#X connect 30 0 14 1;
