#N canvas 871 622 450 300 10;
#X obj 36 200 dac~;
#X msg 46 110 1;
#X msg 52 132 0;
#X obj 37 158 readsf~ 2;
#X obj 105 200 bng 15 250 50 0 empty empty empty 17 7 0 10 -262144
-1 -1;
#X msg 35 82 open ../media/bells-cluster.wav;
#X connect 1 0 3 0;
#X connect 2 0 3 0;
#X connect 3 0 0 0;
#X connect 3 1 0 1;
#X connect 3 2 5 0;
#X connect 3 2 4 0;
#X connect 5 0 3 0;
