#N canvas 0 23 1280 927 24;
#X obj 486 701 osc~;
#X obj 499 940 dac~;
#X obj 499 876 *~;
#X obj 790 548 vsl 30 256 0 1 0 0 empty empty VOL 0 -9 0 14 -261234
-1 -1 12100 1;
#X obj 664 845 line~;
#X msg 664 803 \$1 50;
#X obj 655 346 vline~;
#X obj 499 803 *~;
#X msg 655 304 1 20 \, 0 200 20;
#X obj 447 136 tgl 15 0 empty empty empty 17 7 0 10 -262144 -1 -1 0
1;
#X obj 588 70 hsl 256 30 60 480 0 0 empty empty Tempo -2 -8 0 14 -262144
-1 -1 17500 1;
#X floatatom 556 343 0 0 0 0 - - -;
#X obj 556 301 + 1;
#X obj 451 302 float;
#X obj 451 346 % 4;
#X floatatom 508 385 5 0 0 0 - - -, f 5;
#X obj 351 439 select 0 1 2 3;
#X obj 486 659 mtof;
#X floatatom 865 118 5 0 0 0 - - -, f 5;
#X floatatom 866 183 5 0 0 0 - - -, f 5;
#X obj 586 136 expr 60000/$f1;
#X obj 585 19 loadbang;
#X obj 447 164 metro;
#X text 958 77 This slider controls the tempo. The expr object converts
the tempo from BMP to milliseconds for metro.;
#X text 905 313 The float and + objects keep a count of the total bangs
from metro. The % object converts the count to modulo 4 \, so it repeats
every four pulses. select routes messages that match its arguments.
mtof converts MIDI note names to frequencies for osc~;
#X obj 384 539 f;
#X obj 404 502 + 4;
#X obj 448 540 f;
#X obj 520 541 f;
#X obj 468 503 + 7;
#X obj 540 504 + 12;
#X msg 142 457 60;
#X msg 208 458 63;
#X obj 314 539 f 60;
#X floatatom 287 400 5 0 0 0 - - -, f 5;
#X obj 71 410 select 0 16 24;
#X msg 272 457 62;
#X obj 219 365 % 28;
#X connect 0 0 7 0;
#X connect 2 0 1 0;
#X connect 2 0 1 1;
#X connect 3 0 5 0;
#X connect 4 0 2 1;
#X connect 5 0 4 0;
#X connect 6 0 7 1;
#X connect 7 0 2 0;
#X connect 8 0 6 0;
#X connect 9 0 22 0;
#X connect 10 0 18 0;
#X connect 10 0 20 0;
#X connect 12 0 11 0;
#X connect 12 0 13 1;
#X connect 13 0 12 0;
#X connect 13 0 14 0;
#X connect 13 0 37 0;
#X connect 14 0 15 0;
#X connect 14 0 16 0;
#X connect 16 0 33 0;
#X connect 16 1 25 0;
#X connect 16 2 27 0;
#X connect 16 3 28 0;
#X connect 17 0 0 0;
#X connect 20 0 19 0;
#X connect 20 0 22 1;
#X connect 21 0 10 0;
#X connect 22 0 8 0;
#X connect 22 0 13 0;
#X connect 25 0 17 0;
#X connect 26 0 25 1;
#X connect 27 0 17 0;
#X connect 28 0 17 0;
#X connect 29 0 27 1;
#X connect 30 0 28 1;
#X connect 31 0 33 1;
#X connect 32 0 33 1;
#X connect 33 0 17 0;
#X connect 33 0 26 0;
#X connect 33 0 29 0;
#X connect 33 0 30 0;
#X connect 35 0 31 0;
#X connect 35 1 32 0;
#X connect 35 2 36 0;
#X connect 36 0 33 1;
#X connect 37 0 34 0;
#X connect 37 0 35 0;
