#N canvas 0 23 1680 1005 24;
#X obj 194 603 osc~;
#X obj 195 825 dac~;
#X obj 37 424 vsl 30 256 200 800 1 0 empty empty empty 0 -9 0 10 -204786
-1 -1 0 1;
#X obj 195 761 *~;
#X obj 552 384 vsl 30 256 0 1 0 0 empty empty empty 0 -9 0 10 -261234
-1 -1 8300 1;
#X obj 310 782 line~;
#X msg 310 738 \$1 50;
#X obj 411 353 vline~;
#X obj 195 688 *~;
#X obj 417 145 tgl 15 0 empty empty empty 17 7 0 10 -262144 -1 -1 0
1;
#X text 498 658 vol slider;
#X text 25 707 freq slider;
#X floatatom 95 666 5 0 0 0 - - -, f 5;
#X obj 155 182 metro 10000;
#X obj 56 302 line;
#X obj 172 363 random;
#X obj 171 433 + 440;
#X obj 156 228 t b b;
#X msg 58 236 440;
#X obj 417 167 metro 100;
#X msg 71 270 20 8000;
#X obj 442 225 random 100;
#X obj 455 262 + 20;
#X msg 411 309 1 20 \, 0 \$1 20;
#X connect 0 0 8 0;
#X connect 2 0 12 0;
#X connect 2 0 0 0;
#X connect 3 0 1 0;
#X connect 4 0 6 0;
#X connect 5 0 3 1;
#X connect 6 0 5 0;
#X connect 7 0 8 1;
#X connect 8 0 3 0;
#X connect 9 0 13 0;
#X connect 9 0 19 0;
#X connect 13 0 17 0;
#X connect 14 0 15 1;
#X connect 15 0 16 0;
#X connect 16 0 0 0;
#X connect 17 0 20 0;
#X connect 17 1 18 0;
#X connect 18 0 14 0;
#X connect 19 0 15 0;
#X connect 19 0 21 0;
#X connect 20 0 14 0;
#X connect 21 0 22 0;
#X connect 22 0 23 0;
#X connect 23 0 7 0;
